# xmcd
#
# Track frame offsets: 
#        150
#        25441
#        44034
#        57314
#        81956
#        96544
#        112414
#        124401
#        141334
#        159986
#
# Disc length: 2389 seconds
#
# Revision: 0
# Processed by: cddbd v1.5.2PL0 Copyright (c) Steve Scherf et al.
# Submitted via: ExactAudioCopy v0.95b4
#
DISCID=9c09530a
DTITLE=Mason Rack Band - Limits of Grip
DYEAR=2011
DGENRE=Blues
TTITLE0=Hard Goodbye
TTITLE1=Purple and Blue
TTITLE2=Take you Home
TTITLE3=Mankind
TTITLE4=Dare me to
TTITLE5=90 Days
TTITLE6=Not in that Order
TTITLE7=In a Can
TTITLE8=Dead of Night
TTITLE9=Beast
EXTD=
EXTT0=
EXTT1=
EXTT2=
EXTT3=
EXTT4=
EXTT5=
EXTT6=
EXTT7=
EXTT8=
EXTT9=
PLAYORDER=
